HIERARCHY
ROOT Pelvis
{
	OFFSET 0.000000 0.000000 0.000000
	CHANNELS 6 Xposition Yposition Zposition Xrotation Yrotation Zrotation
	JOINT LeftUpLeg_virtual
	{
		OFFSET 0.000000 0.000000 0.000000
		CHANNELS 3 Xrotation Yrotation Zrotation
		JOINT LeftUpLeg
		{
			OFFSET 18.735201 -5.666702 -4.541200
			CHANNELS 3 Xrotation Yrotation Zrotation
			JOINT LeftLeg
			{
				OFFSET -0.021200 -31.938179 0.493100
				CHANNELS 3 Xrotation Yrotation Zrotation
				JOINT LeftFoot
				{
					OFFSET 0.021200 -31.938179 -4.336299
					CHANNELS 3 Xrotation Yrotation Zrotation
					JOINT LeftToeBase
					{
						OFFSET 0.943001 -26.722000 15.023500
						CHANNELS 3 Xrotation Yrotation Zrotation
						End Site
						{
							OFFSET 0 0 0
						}
					}
				}
			}
		}
	}
	JOINT RightUpLeg_virtual
	{
		OFFSET 0.000000 0.000000 0.000000
		CHANNELS 3 Xrotation Yrotation Zrotation
		JOINT RightUpLeg
		{
			OFFSET -18.735201 -5.666702 -4.541200
			CHANNELS 3 Xrotation Yrotation Zrotation
			JOINT RightLeg
			{
				OFFSET 0.018946 -31.938133 0.493100
				CHANNELS 3 Xrotation Yrotation Zrotation
				JOINT RightFoot
				{
					OFFSET -0.018946 -31.938126 -4.336299
					CHANNELS 3 Xrotation Yrotation Zrotation
					JOINT RightToeBase
					{
						OFFSET -0.943001 -26.722004 15.023500
						CHANNELS 3 Xrotation Yrotation Zrotation
						End Site
						{
							OFFSET 0 0 0
						}
					}
				}
			}
		}
	}
	JOINT Hips_virtual
	{
		OFFSET 0.000000 0.000000 0.000000
		CHANNELS 3 Xrotation Yrotation Zrotation
		JOINT Hips
		{
			OFFSET -0.000000 -0.000000 -0.000000
			CHANNELS 3 Xrotation Yrotation Zrotation
			JOINT Spine
			{
				OFFSET 0.000000 10.199997 -0.299500
				CHANNELS 3 Xrotation Yrotation Zrotation
				JOINT Spine1
				{
					OFFSET 0.000000 11.900002 -1.516600
					CHANNELS 3 Xrotation Yrotation Zrotation
					JOINT Spine2
					{
						OFFSET 0.000000 13.600006 -2.842500
						CHANNELS 3 Xrotation Yrotation Zrotation
						JOINT Neck_virtual
						{
							OFFSET 0.000000 0.000000 0.000000
							CHANNELS 3 Xrotation Yrotation Zrotation
							JOINT Neck
							{
								OFFSET 0.000000 9.624100 -2.890100
								CHANNELS 3 Xrotation Yrotation Zrotation
								JOINT Head
								{
									OFFSET 0.000000 14.068802 -1.351900
									CHANNELS 3 Xrotation Yrotation Zrotation
									End Site
									{
										OFFSET 0 0 0
									}
								}
							}
						}
						JOINT LeftShoulder_virtual
						{
							OFFSET 0.000000 0.000000 0.000000
							CHANNELS 3 Xrotation Yrotation Zrotation
							JOINT LeftShoulder
							{
								OFFSET 15.263000 10.923401 -0.547700
								CHANNELS 3 Xrotation Yrotation Zrotation
								JOINT LeftArm
								{
									OFFSET 25.438599 -2.830597 -13.032500
									CHANNELS 3 Xrotation Yrotation Zrotation
									JOINT LeftForeArm
									{
										OFFSET 29.960503 0.000000 0.000000
										CHANNELS 3 Xrotation Yrotation Zrotation
										JOINT LeftHand
										{
											OFFSET 27.849251 0.000000 0.000000
											CHANNELS 3 Xrotation Yrotation Zrotation
											End Site
											{
												OFFSET 0 0 0
											}
										}
									}
								}
							}
						}
						JOINT RightShoulder_virtual
						{
							OFFSET 0.000000 0.000000 0.000000
							CHANNELS 3 Xrotation Yrotation Zrotation
							JOINT RightShoulder
							{
								OFFSET -15.263000 10.923401 -0.547700
								CHANNELS 3 Xrotation Yrotation Zrotation
								JOINT RightArm
								{
									OFFSET -25.438599 -2.830597 -13.032500
									CHANNELS 3 Xrotation Yrotation Zrotation
									JOINT RightForeArm
									{
										OFFSET -29.960503 0.000000 0.000000
										CHANNELS 3 Xrotation Yrotation Zrotation
										JOINT RightHand
										{
											OFFSET -27.849251 0.000000 0.000000
											CHANNELS 3 Xrotation Yrotation Zrotation
											End Site
											{
												OFFSET 0 0 0
											}
										}
									}
								}
							}
						}
					}
				}
			}
		}
	}
}
MOTION
Frames: 10
Frame Time: 0.03333333
-0.384542 86.922157 9.270851 0.000000 0.000000 0.000000 -9.916863 -1.055503 -4.420238 -39.942967 19.262640 11.120312 46.530677 -9.809785 11.604248 2.793794 -6.427111 -2.063972 0.000000 0.000000 0.000000 -10.412475 0.278375 -4.573987 -27.714823 -36.062593 -4.285609 37.677485 11.806821 -10.463755 4.226986 7.969003 -4.231391 0.000000 0.000000 0.000000 -10.170980 -0.560255 -4.429339 -0.170922 0.924374 0.677025 4.865185 0.244958 3.279542 8.577924 0.408558 -0.391702 0.000000 0.000000 0.000000 7.770268 0.631490 -0.955275 6.071560 0.620075 -0.155422 0.000000 0.000000 0.000000 8.030410 0.811367 -0.675199 0.765070 4.721715 -10.255922 76.426251 -68.837126 8.236920 0.679932 -22.184956 0.348815 0.000000 0.000000 0.000000 8.455729 0.609808 -0.762506 1.991164 -1.724348 9.976850 12.553613 43.774023 55.616834 1.193890 28.009441 -0.016028 0.000000 0.000000 0.000000 
-0.364732 86.926292 9.272812 0.000000 0.000000 0.000000 -9.921306 -1.123530 -4.386929 -39.891354 19.359362 11.110764 46.504576 -9.816427 11.593698 2.757316 -6.438936 -2.051642 0.000000 0.000000 0.000000 -10.418772 0.215159 -4.541868 -27.780597 -35.899946 -4.280499 37.713651 11.774882 -10.483788 4.287892 7.957377 -4.268049 0.000000 0.000000 0.000000 -10.179374 -0.628059 -4.395854 -0.176205 0.925795 0.674667 4.865748 0.256257 3.269368 8.566654 0.423400 -0.391986 0.000000 0.000000 0.000000 7.761141 0.645338 -0.954633 6.077643 0.624276 -0.167002 0.000000 0.000000 0.000000 8.019196 0.825006 -0.674685 0.768364 4.746420 -10.307420 76.353865 -68.748026 8.221178 0.692266 -22.271731 0.356593 0.000000 0.000000 0.000000 8.441432 0.622611 -0.759875 1.991396 -1.709752 9.938760 12.576806 43.768115 55.572321 1.184493 28.007273 -0.007176 0.000000 0.000000 0.000000 
-0.349541 86.925285 9.276989 0.000000 0.000000 0.000000 -9.932649 -1.184785 -4.346730 -39.847378 19.446577 11.097525 46.484041 -9.824352 11.583143 2.735905 -6.449856 -2.039912 0.000000 0.000000 0.000000 -10.431976 0.158876 -4.504783 -27.870321 -35.742923 -4.296131 37.781027 11.745732 -10.499073 4.343356 7.957449 -4.287767 0.000000 0.000000 0.000000 -10.195334 -0.686234 -4.356806 -0.180691 0.927025 0.670743 4.872093 0.262365 3.250450 8.554911 0.433419 -0.392095 0.000000 0.000000 0.000000 7.751871 0.654412 -0.954034 6.084733 0.630264 -0.178657 0.000000 0.000000 0.000000 8.008958 0.833847 -0.673225 0.772384 4.765647 -10.351422 76.185542 -68.652198 8.117004 0.702855 -22.373164 0.364182 0.000000 0.000000 0.000000 8.428320 0.630841 -0.756603 1.992685 -1.681312 9.931819 12.644907 43.738926 55.471265 1.173279 28.056501 0.008406 0.000000 0.000000 0.000000 
-0.341734 86.919914 9.282410 0.000000 0.000000 0.000000 -9.951097 -1.231011 -4.302125 -39.823377 19.518724 11.087196 46.481514 -9.829819 11.571969 2.729468 -6.459618 -2.026227 0.000000 0.000000 0.000000 -10.451286 0.115987 -4.464288 -27.975816 -35.610018 -4.337347 37.877210 11.719069 -10.508837 4.369661 7.971177 -4.286153 0.000000 0.000000 0.000000 -10.216092 -0.731635 -4.314119 -0.182013 0.928899 0.665199 4.883120 0.262232 3.222848 8.543012 0.438057 -0.392293 0.000000 0.000000 0.000000 7.742793 0.658071 -0.953742 6.092987 0.637570 -0.188470 0.000000 0.000000 0.000000 7.999915 0.837585 -0.671463 0.777533 4.780323 -10.384870 75.945147 -68.559281 7.933746 0.711709 -22.476530 0.371548 0.000000 0.000000 0.000000 8.417161 0.634303 -0.753389 1.994476 -1.648536 9.953392 12.735403 43.700353 55.344166 1.161504 28.134499 0.026991 0.000000 0.000000 0.000000 
-0.341467 86.911682 9.285427 0.000000 0.000000 0.000000 -9.972784 -1.257184 -4.256654 -39.816478 19.564102 11.076309 46.499631 -9.835267 11.565167 2.733119 -6.469378 -2.010940 0.000000 0.000000 0.000000 -10.472477 0.090856 -4.422275 -28.079567 -35.507025 -4.392393 37.979851 11.699790 -10.512933 4.358357 8.007752 -4.248473 0.000000 0.000000 0.000000 -10.239821 -0.757624 -4.271154 -0.181971 0.928024 0.661911 4.896698 0.256622 3.188803 8.530432 0.438215 -0.392792 0.000000 0.000000 0.000000 7.733555 0.657267 -0.953780 6.102858 0.645464 -0.194845 0.000000 0.000000 0.000000 7.992153 0.837130 -0.669987 0.783996 4.792605 -10.407130 75.667267 -68.475481 7.692884 0.719384 -22.572522 0.378954 0.000000 0.000000 0.000000 8.407136 0.633444 -0.750574 1.996886 -1.620137 9.999165 12.840365 43.659440 55.206380 1.150503 28.224290 0.045881 0.000000 0.000000 0.000000 
-0.348873 86.901833 9.287891 0.000000 0.000000 0.000000 -9.993499 -1.264633 -4.214520 -39.812995 19.582728 11.061397 46.526610 -9.843323 11.565386 2.736205 -6.479441 -1.997375 0.000000 0.000000 0.000000 -10.492843 0.079733 -4.381810 -28.172922 -35.429649 -4.451830 38.073831 11.692491 -10.512544 4.329711 8.069249 -4.168534 0.000000 0.000000 0.000000 -10.263470 -0.765399 -4.231367 -0.179228 0.924245 0.662726 4.909755 0.247190 3.152932 8.516518 0.435935 -0.393888 0.000000 0.000000 0.000000 7.723381 0.653700 -0.954251 6.114196 0.653315 -0.196718 0.000000 0.000000 0.000000 7.984875 0.834403 -0.668930 0.791566 4.803515 -10.419571 75.390351 -68.403033 7.428332 0.725936 -22.653021 0.385074 0.000000 0.000000 0.000000 8.397343 0.630104 -0.748840 1.999035 -1.599420 10.067313 12.962783 43.613818 55.057755 1.141341 28.315553 0.064470 0.000000 0.000000 0.000000 
-0.360068 86.893135 9.289825 0.000000 0.000000 0.000000 -10.008809 -1.258416 -4.180477 -39.801787 19.583182 11.042446 46.540796 -9.854874 11.569983 2.731567 -6.492791 -1.992650 0.000000 0.000000 0.000000 -10.508054 0.084487 -4.346645 -28.249738 -35.368130 -4.504088 38.153983 11.692120 -10.513599 4.310241 8.139527 -4.069215 0.000000 0.000000 0.000000 -10.281932 -0.759291 -4.199327 -0.177221 0.916215 0.665647 4.918398 0.236998 3.121811 8.500985 0.433263 -0.395502 0.000000 0.000000 0.000000 7.710731 0.649842 -0.954866 6.127034 0.660338 -0.194002 0.000000 0.000000 0.000000 7.977090 0.831705 -0.668378 0.799858 4.814578 -10.427495 75.147756 -68.338235 7.177034 0.733082 -22.721012 0.390215 0.000000 0.000000 0.000000 8.385979 0.626506 -0.748341 2.000513 -1.585518 10.154277 13.113399 43.557366 54.889548 1.133569 28.406586 0.082635 0.000000 0.000000 0.000000 
-0.371098 86.888176 9.290031 0.000000 0.000000 0.000000 -10.014839 -1.244392 -4.157701 -39.786265 19.576625 11.023315 46.535448 -9.866488 11.573976 2.732974 -6.505376 -1.993471 0.000000 0.000000 0.000000 -10.515051 0.098346 -4.321415 -28.300219 -35.322931 -4.538796 38.207139 11.688235 -10.515778 4.305039 8.195529 -3.986624 0.000000 0.000000 0.000000 -10.291371 -0.744557 -4.178345 -0.176341 0.908242 0.671267 4.920940 0.228195 3.101322 8.482911 0.432290 -0.397116 0.000000 0.000000 0.000000 7.695249 0.647835 -0.955752 6.140978 0.666070 -0.187514 0.000000 0.000000 0.000000 7.967019 0.831036 -0.668111 0.808447 4.826401 -10.435391 74.957187 -68.274653 6.968030 0.741133 -22.783855 0.394240 0.000000 0.000000 0.000000 8.371697 0.624713 -0.748872 2.000512 -1.576754 10.253443 13.290503 43.483023 54.704051 1.128185 28.503276 0.099426 0.000000 0.000000 0.000000 
-0.379624 86.887802 9.290215 0.000000 0.000000 0.000000 -10.012979 -1.227900 -4.147503 -39.780681 19.576285 11.014264 46.523120 -9.868939 11.572828 2.757970 -6.506377 -1.987243 0.000000 0.000000 0.000000 -10.513405 0.113209 -4.310015 -28.316810 -35.293514 -4.549743 38.228268 11.668652 -10.516877 4.298536 8.216526 -3.952104 0.000000 0.000000 0.000000 -10.289295 -0.728504 -4.169593 -0.173611 0.903428 0.674993 4.916636 0.222291 3.095196 8.462537 0.434322 -0.397780 0.000000 0.000000 0.000000 7.677528 0.649058 -0.956145 6.155465 0.670298 -0.178626 0.000000 0.000000 0.000000 7.953245 0.833450 -0.667433 0.817049 4.839154 -10.450814 74.824395 -68.205408 6.815512 0.751231 -22.845702 0.397943 0.000000 0.000000 0.000000 8.354463 0.626610 -0.749522 1.998619 -1.571044 10.354996 13.482338 43.393093 54.519069 1.125525 28.603895 0.112745 0.000000 0.000000 0.000000 
-0.384024 86.893768 9.287941 0.000000 0.000000 0.000000 -10.002914 -1.214280 -4.148976 -39.791651 19.584507 11.018794 46.513383 -9.860598 11.566869 2.796417 -6.495233 -1.971007 0.000000 0.000000 0.000000 -10.503879 0.124150 -4.311535 -28.299992 -35.278091 -4.531478 38.210127 11.631880 -10.517462 4.292902 8.202900 -3.968798 0.000000 0.000000 0.000000 -10.277157 -0.716813 -4.171461 -0.169234 0.901133 0.675064 4.906612 0.219474 3.103724 8.439756 0.439066 -0.395925 0.000000 0.000000 0.000000 7.657901 0.653570 -0.955013 6.170141 0.673223 -0.169353 0.000000 0.000000 0.000000 7.935076 0.838969 -0.665069 0.825767 4.853429 -10.480007 74.733772 -68.126028 6.707256 0.763331 -22.907587 0.402439 0.000000 0.000000 0.000000 8.334123 0.632017 -0.748516 1.995615 -1.568196 10.446267 13.668731 43.295794 54.355899 1.125820 28.701968 0.119872 0.000000 0.000000 0.000000 
